<svg width="32" height="32" viewBox="0 0 32 32" fill="none" xmlns="http://www.w3.org/2000/svg">
  <rect width="32" height="32" rx="6" fill="#0D9488"/>
  <g transform="translate(4, 4)">
    <!-- Top-left finder -->
    <rect x="1" y="1" width="7" height="7" rx="1" fill="white"/>
    <rect x="2.5" y="2.5" width="4" height="4" fill="#0D9488"/>
    <rect x="3.5" y="3.5" width="2" height="2" fill="white"/>
    
    <!-- Top-right finder -->
    <rect x="16" y="1" width="7" height="7" rx="1" fill="white"/>
    <rect x="17.5" y="2.5" width="4" height="4" fill="#0D9488"/>
    <rect x="18.5" y="3.5" width="2" height="2" fill="white"/>
    
    <!-- Bottom-left finder -->
    <rect x="1" y="16" width="7" height="7" rx="1" fill="white"/>
    <rect x="2.5" y="17.5" width="4" height="4" fill="#0D9488"/>
    <rect x="3.5" y="18.5" width="2" height="2" fill="white"/>
    
    <!-- Data dots -->
    <rect x="10" y="3" width="2" height="2" fill="white"/>
    <rect x="10" y="7" width="2" height="2" fill="white"/>
    <rect x="3" y="10" width="2" height="2" fill="white"/>
    <rect x="7" y="10" width="2" height="2" fill="white"/>
    <rect x="10" y="10" width="2" height="2" fill="white"/>
    <rect x="14" y="10" width="2" height="2" fill="white"/>
    <rect x="18" y="10" width="2" height="2" fill="white"/>
    <rect x="10" y="14" width="2" height="2" fill="white"/>
    <rect x="14" y="14" width="2" height="2" fill="white"/>
    <rect x="10" y="18" width="2" height="2" fill="white"/>
    <rect x="14" y="18" width="2" height="2" fill="white"/>
    <rect x="18" y="18" width="2" height="2" fill="white"/>
    <rect x="18" y="14" width="2" height="2" fill="white"/>
  </g>
</svg>
